<svg width="81" height="80" viewBox="0 0 81 80" fill="none" xmlns="http://www.w3.org/2000/svg">
<g filter="url(#filter0_d_548_5)">
<rect x="2" y="0.822266" width="77" height="75" rx="10" fill="#00215B"/>
</g>
<g clip-path="url(#clip0_548_5)">
<path d="M16.9933 50.189C17.3628 48.9036 17.8066 47.6612 18.0685 46.3816C18.6276 43.6543 18.3637 40.968 17.355 38.3757C14.3443 30.6378 16.4303 22.3814 22.8386 17.1439C26.6567 14.0213 31.0827 12.6342 36.0072 13.0822C44.5699 13.8629 51.3654 20.1882 52.6615 28.7009C54.1062 38.1859 48.1944 47.086 38.8067 49.3144C34.672 50.2966 30.635 49.9346 26.7603 48.1523C25.8375 47.7277 25.1122 47.8705 24.3596 48.5338C22.3264 50.3259 19.9511 50.864 17.3159 50.2946C17.1771 50.2653 17.0441 50.2085 16.9913 50.1909L16.9933 50.189ZM46.9433 31.5084C46.9491 30.045 45.7507 28.8359 44.2865 28.828C42.8261 28.8202 41.6101 30.0215 41.6004 31.483C41.5906 32.9347 42.8026 34.1575 44.261 34.1673C45.7194 34.1771 46.9374 32.9699 46.9433 31.5084ZM37.0942 31.4947C37.0942 30.0215 35.9036 28.828 34.4335 28.83C32.9633 28.83 31.7747 30.0234 31.7747 31.4986C31.7747 32.968 32.9731 34.1712 34.4374 34.1673C35.9056 34.1634 37.0942 32.968 37.0942 31.4947V31.4947ZM27.2568 31.5182C27.2705 30.045 26.0878 28.8417 24.6176 28.83C23.1495 28.8182 21.9472 30.0058 21.9393 31.4752C21.9315 32.9504 23.1064 34.1497 24.5766 34.1673C26.0389 34.1829 27.2451 32.9914 27.2588 31.5182H27.2568Z" fill="white"/>
<path d="M65.1142 62.6915C62.3773 63.3978 59.9277 62.9028 57.746 61.1009C57.4254 60.8367 57.0715 60.5296 56.6903 60.4494C56.2954 60.3672 55.8027 60.4396 55.4294 60.6098C52.7608 61.8248 49.9692 62.4548 47.0465 62.3061C40.472 61.9715 35.4008 58.9976 31.8291 53.4647C31.7685 53.3688 31.7157 53.2671 31.6649 53.1654C31.6532 53.1399 31.6649 53.1047 31.6649 53.0597C38.9178 53.7543 45.2382 51.7176 50.2859 46.3881C55.3199 41.0743 57.005 34.6648 55.924 27.4141C57.2533 28.0538 58.4185 28.8169 59.4839 29.7227C63.1045 32.8061 65.2745 36.7015 65.8688 41.4303C66.2618 44.5549 65.7672 47.5991 64.7662 50.5593C64.0937 52.5491 63.6519 54.5623 63.7262 56.6772C63.7927 58.5868 64.211 60.4102 64.9637 62.1632C65.0145 62.2826 65.0673 62.4019 65.1142 62.5232C65.124 62.5506 65.1142 62.5858 65.1142 62.6954V62.6915Z" fill="white"/>
</g>
<defs>
<filter id="filter0_d_548_5" x="0" y="0.822266" width="81" height="79" filterUnits="userSpaceOnUse" color-interpolation-filters="sRGB">
<feFlood flood-opacity="0" result="BackgroundImageFix"/>
<feColorMatrix in="SourceAlpha" type="matrix" values="0 0 0 0 0 0 0 0 0 0 0 0 0 0 0 0 0 0 127 0" result="hardAlpha"/>
<feOffset dy="2"/>
<feGaussianBlur stdDeviation="1"/>
<feComposite in2="hardAlpha" operator="out"/>
<feColorMatrix type="matrix" values="0 0 0 0 0.595833 0 0 0 0 0.595833 0 0 0 0 0.595833 0 0 0 0.2 0"/>
<feBlend mode="normal" in2="BackgroundImageFix" result="effect1_dropShadow_548_5"/>
<feBlend mode="normal" in="SourceGraphic" in2="effect1_dropShadow_548_5" result="shape"/>
</filter>
<clipPath id="clip0_548_5">
<rect width="50" height="50" fill="white" transform="translate(16 13)"/>
</clipPath>
</defs>
</svg>
