<svg width="116" height="116" viewBox="0 0 116 116" fill="none" xmlns="http://www.w3.org/2000/svg">
<circle cx="58" cy="58" r="58" fill="#F0F2F5"/>
<g clip-path="url(#clip0_372_4)">
<path d="M77.3199 67.2093L75.4299 62.6593C75.2599 62.2593 74.8099 62.0493 74.3999 62.1893L70.1599 63.5793C69.8299 63.6893 69.4799 63.5793 69.2599 63.3193C68.8499 62.8393 68.3999 62.3893 67.9299 61.9793C67.6699 61.7593 67.5599 61.3993 67.6699 61.0793L69.0599 56.8393C69.1999 56.4193 68.9899 55.9793 68.5899 55.8093L64.0399 53.9193C63.6399 53.7493 63.1699 53.9193 62.9799 54.3093L60.9599 58.2893C60.8099 58.5993 60.4799 58.7693 60.1399 58.7393C59.5199 58.6993 58.8799 58.6993 58.2499 58.7393C57.9099 58.7593 57.5799 58.5893 57.4299 58.2893L55.4099 54.3093C55.2099 53.9193 54.7499 53.7493 54.3499 53.9193L49.7999 55.8093C49.3999 55.9793 49.1899 56.4293 49.3299 56.8393L50.7199 61.0793C50.8299 61.4093 50.7199 61.7593 50.4599 61.9793C49.9799 62.3893 49.5299 62.8393 49.1199 63.3093C48.8999 63.5693 48.5399 63.6793 48.2199 63.5693L43.9799 62.1793C43.5699 62.0393 43.1199 62.2493 42.9499 62.6493L41.0599 67.1993C40.8899 67.5993 41.0599 68.0693 41.4499 68.2593L45.4299 70.2793C45.7399 70.4293 45.9099 70.7593 45.8799 71.0993C45.8399 71.7193 45.8399 72.3593 45.8799 72.9893C45.8999 73.3293 45.7299 73.6593 45.4299 73.8093L41.4499 75.8293C41.0599 76.0293 40.8899 76.4893 41.0599 76.8893L42.9499 81.4393C43.1199 81.8393 43.5699 82.0493 43.9799 81.9093L48.2199 80.5193C48.5499 80.4093 48.8999 80.5193 49.1199 80.7793C49.5299 81.2593 49.9799 81.7093 50.4499 82.1193C50.7099 82.3393 50.8199 82.6993 50.7099 83.0193L49.3199 87.2593C49.1799 87.6693 49.3899 88.1193 49.7899 88.2893L54.3399 90.1793C54.7399 90.3493 55.2099 90.1793 55.3999 89.7893L57.4199 85.8093C57.5699 85.4993 57.8999 85.3293 58.2399 85.3593C58.8599 85.3993 59.4999 85.3993 60.1299 85.3593C60.4699 85.3393 60.7999 85.5093 60.9499 85.8093L62.9699 89.7893C63.1699 90.1793 63.6299 90.3493 64.0299 90.1793L68.5799 88.2893C68.9799 88.1193 69.1899 87.6693 69.0499 87.2593L67.6599 83.0193C67.5499 82.6893 67.6599 82.3393 67.9199 82.1193C68.3999 81.7093 68.8499 81.2593 69.2599 80.7893C69.4799 80.5293 69.8399 80.4193 70.1599 80.5293L74.3999 81.9193C74.8099 82.0593 75.2599 81.8493 75.4299 81.4493L77.3199 76.8993C77.4899 76.4993 77.3199 76.0293 76.9299 75.8393L72.9499 73.8193C72.6399 73.6693 72.4699 73.3393 72.4999 72.9993C72.5399 72.3793 72.5399 71.7393 72.4999 71.1093C72.4799 70.7693 72.6499 70.4393 72.9499 70.2893L76.9299 68.2693C77.3199 68.0693 77.4899 67.6093 77.3199 67.2093Z" stroke="#00215B" stroke-width="2.5" stroke-linecap="round" stroke-linejoin="round"/>
<path d="M64.7802 69.7403C66.0602 72.8403 64.5902 76.3903 61.4902 77.6703C58.3902 78.9503 54.8402 77.4803 53.5602 74.3803C52.2802 71.2803 53.7502 67.7303 56.8502 66.4503C59.9502 65.1703 63.5002 66.6403 64.7802 69.7403Z" stroke="#00215B" stroke-width="2.5" stroke-linecap="round" stroke-linejoin="round"/>
<path d="M82.34 71.9298H86.52C93 71.9298 98.26 66.6798 98.26 60.1898C98.26 53.6998 93.01 48.4598 86.52 48.4598C84.62 48.4598 82.85 48.9498 81.26 49.7598C80.81 38.3698 71.5 29.2598 60 29.2598C49.63 29.2598 41.01 36.6598 39.08 46.4598C37.01 45.1998 34.6 44.4398 32 44.4398C24.41 44.4398 18.25 50.5998 18.25 58.1898C18.25 65.7798 24.41 71.9398 32 71.9398H35.86" stroke="#00215B" stroke-width="2.5" stroke-linecap="round" stroke-linejoin="round"/>
<path d="M59 36.8691C52.94 36.8691 47.7 41.1791 46.54 47.1191" stroke="#00215B" stroke-width="2.5" stroke-linecap="round" stroke-linejoin="round"/>
<path d="M31.0001 52.0508C28.1701 52.0508 25.8701 54.3508 25.8701 57.1808" stroke="#00215B" stroke-width="2.5" stroke-linecap="round" stroke-linejoin="round"/>
</g>
<defs>
<clipPath id="clip0_372_4">
<rect width="82.5" height="63.52" fill="white" transform="translate(17 28)"/>
</clipPath>
</defs>
</svg>
