<svg width="116" height="116" viewBox="0 0 116 116" fill="none" xmlns="http://www.w3.org/2000/svg">
<circle cx="58" cy="58" r="58" fill="#F0F2F5"/>
<g clip-path="url(#clip0_372_2)">
<path d="M61.6898 80.5501L75.4498 64.2901C76.0398 63.6001 76.0698 62.5901 75.5198 61.8601C74.8498 60.9601 73.5498 60.8101 72.6898 61.5401L59.5098 72.7401C59.2698 72.9801 58.8798 72.9801 58.6298 72.7401L52.2198 68.7101C51.2898 68.1201 50.0698 68.2601 49.2898 69.0401C48.3998 69.9201 48.3598 71.3501 49.1898 72.2801L56.5498 80.6101C57.9198 82.1601 60.3398 82.1301 61.6698 80.5501H61.6898Z" stroke="#00215B" stroke-width="2.5" stroke-linecap="round" stroke-linejoin="round"/>
<path d="M66.2598 60.3998C63.9498 59.0398 61.2598 58.2598 58.3898 58.2598C49.7998 58.2598 42.8398 65.2198 42.8398 73.8098C42.8398 82.3998 49.7998 89.3598 58.3898 89.3598C66.9798 89.3598 73.9398 82.3998 73.9398 73.8098" stroke="#00215B" stroke-width="2.5" stroke-linecap="round" stroke-linejoin="round"/>
<path d="M80.34 73.9295H86.52C93 73.9295 98.26 68.6795 98.26 62.1995C98.26 55.7195 93.01 50.4695 86.52 50.4695C84.62 50.4695 82.85 50.9595 81.26 51.7695C80.81 40.3795 71.5 31.2695 60 31.2695C49.63 31.2695 41.01 38.6695 39.08 48.4695C37.01 47.2095 34.6 46.4495 32 46.4495C24.41 46.4495 18.25 52.6095 18.25 60.1995C18.25 67.7895 24.41 73.9495 32 73.9495H36.17" stroke="#00215B" stroke-width="2.5" stroke-linecap="round" stroke-linejoin="round"/>
<path d="M60 39.8691C53.94 39.8691 48.7 44.1791 47.54 50.1191" stroke="#00215B" stroke-width="2.5" stroke-linecap="round" stroke-linejoin="round"/>
<path d="M32.0001 55.0508C29.1701 55.0508 26.8701 57.3508 26.8701 60.1808" stroke="#00215B" stroke-width="2.5" stroke-linecap="round" stroke-linejoin="round"/>
</g>
<defs>
<clipPath id="clip0_372_2">
<rect width="82.5" height="60.62" fill="white" transform="translate(17 30)"/>
</clipPath>
</defs>
</svg>
