<svg width="81" height="79" viewBox="0 0 81 79" fill="none" xmlns="http://www.w3.org/2000/svg">
<g filter="url(#filter0_d_548_4)">
<rect x="2" width="77" height="75" rx="10" fill="#25C7D9"/>
</g>
<g clip-path="url(#clip0_548_4)">
<path d="M49.2866 12.0049C52.6328 12.0049 55.9789 12.0033 59.3251 12.0049C61.3649 12.0049 62.6761 13.3055 62.6794 15.326C62.6827 17.6596 62.6827 19.9947 62.6794 22.3283C62.6778 24.2872 61.3436 25.6007 59.3595 25.6007C54.2656 25.6024 49.1717 25.6056 44.0779 25.5959C43.3279 25.5959 42.66 25.7824 42.0282 26.1813C40.4297 27.1916 38.8166 28.1808 37.21 29.1781C37.141 29.2219 37.0738 29.2981 37.0015 29.3013C36.803 29.311 36.5519 29.3581 36.4239 29.2608C36.3303 29.1894 36.3254 28.8716 36.4042 28.7305C36.8276 27.9764 37.292 27.2435 37.7384 26.5007C38.124 25.8618 38.0453 25.5586 37.4118 25.1726C36.4321 24.5759 35.8741 23.7099 35.8643 22.5715C35.8397 20.0482 35.8282 17.525 35.8643 15.0017C35.8856 13.3233 37.2756 12.0195 39.0037 12.0082C41.4751 11.9919 43.9482 12.0049 46.4197 12.0049C47.3748 12.0049 48.3315 12.0049 49.2866 12.0049ZM56.3941 20.2639C57.2163 20.2704 57.8842 19.6234 57.8924 18.8158C57.899 18.0163 57.2343 17.3482 56.4187 17.3369C55.613 17.3255 54.9336 17.9871 54.927 18.7915C54.9204 19.6055 55.5719 20.2574 56.3958 20.2639H56.3941ZM49.2702 17.3401C48.453 17.3401 47.7867 17.9936 47.785 18.8012C47.7834 19.6104 48.4431 20.2623 49.2653 20.2639C50.0875 20.2639 50.7472 19.6185 50.7505 18.8061C50.7537 18.0017 50.0875 17.3417 49.2702 17.3401ZM42.1266 17.3401C41.3077 17.3401 40.6447 17.9985 40.6464 18.8044C40.6464 19.612 41.3094 20.2623 42.1315 20.2623C42.9504 20.2623 43.6151 19.6072 43.6134 18.7996C43.6118 17.9936 42.9439 17.3385 42.1266 17.3401Z" fill="white"/>
<path d="M54.9156 61.9984C51.7746 61.9984 48.6319 61.9984 45.4909 61.9984C44.2897 61.9984 43.7793 61.4892 43.7793 60.2924C43.7793 58.0529 43.776 55.8118 43.7793 53.5723C43.7842 49.2458 47.0664 45.9847 51.4431 45.9636C53.7652 45.9522 56.0873 45.9522 58.4095 45.9636C62.7764 45.9831 66.0634 49.262 66.0618 53.5821C66.0618 55.8361 66.0618 58.0886 66.0618 60.3427C66.0618 61.4811 65.5383 61.9967 64.383 61.9984C62.7977 62 61.2141 61.9984 59.6288 61.9984C58.0583 61.9984 56.4878 61.9984 54.9156 61.9984Z" fill="white"/>
<path d="M14.9602 50.1297C15.1522 50.1297 15.3015 50.1297 15.4492 50.1297C22.2104 50.1297 28.9717 50.1297 35.7313 50.1297C37.3297 50.1297 38.9281 50.1297 40.5248 50.1297C41.2961 50.1297 41.5866 50.42 41.5899 51.1838C41.5915 51.5487 41.5948 51.9119 41.5899 52.2768C41.58 52.9303 41.2682 53.2416 40.602 53.2416C37.7071 53.2449 34.8106 53.2449 31.9158 53.2449C26.0834 53.2449 20.251 53.2449 14.4186 53.2449C12.8317 53.2449 11.998 52.4195 11.998 50.8449C11.9997 39.5226 11.9997 28.2003 11.9997 16.8796C11.9997 15.3391 12.8432 14.5088 14.4088 14.5088C20.2953 14.5088 26.1818 14.5088 32.0684 14.5088C32.9874 14.5088 33.2467 14.7618 33.2401 15.6553C33.2385 15.9926 33.2385 16.3299 33.2303 16.6672C33.2171 17.2996 32.9086 17.6142 32.2669 17.6158C30.6275 17.6207 28.9897 17.6158 27.3503 17.6158C23.3477 17.6158 19.3468 17.6175 15.3442 17.6207C15.2244 17.6207 15.1046 17.6353 14.9602 17.645V50.1297Z" fill="white"/>
<path d="M62.9584 36.0875C62.9928 40.4156 59.412 44.0205 55.05 44.053C50.5404 44.087 46.9038 40.5826 46.8824 36.1831C46.8611 31.8128 50.4173 28.2274 54.8104 28.1917C59.2988 28.1544 62.9239 31.6685 62.96 36.0891L62.9584 36.0875Z" fill="white"/>
<path d="M26.8369 47.0579C24.6936 47.0579 22.5504 47.0579 20.4055 47.0579C19.3388 47.0579 18.7989 46.5195 18.7973 45.4589C18.7956 43.9476 18.7907 42.4378 18.7973 40.9265C18.812 37.8567 21.2014 35.4875 24.3014 35.4729C26.0081 35.4648 27.7149 35.4648 29.4216 35.4729C32.4297 35.4875 34.8371 37.8356 34.8765 40.8097C34.8978 42.4005 34.8863 43.993 34.8765 45.5854C34.8716 46.4838 34.2972 47.053 33.3864 47.0546C31.2021 47.0611 29.0179 47.0562 26.8336 47.0562L26.8369 47.0579Z" fill="white"/>
<path d="M68.2446 17.6193C67.6341 17.6193 67.0778 17.6193 66.5215 17.6193C65.5385 17.6193 65.2989 17.3809 65.2956 16.3933C65.2956 16.069 65.2857 15.7463 65.2923 15.422C65.3021 14.8463 65.6238 14.5187 66.2113 14.5122C67.1664 14.5025 68.1231 14.4944 69.0799 14.5138C70.2746 14.5382 71.1673 15.4349 71.1788 16.6139C71.192 17.976 71.1821 19.3398 71.1821 20.702C71.1821 30.7951 71.1821 40.8866 71.1821 50.9796C71.1821 52.1975 70.4502 53.0748 69.3211 53.224C68.5646 53.3245 68.2479 53.0537 68.2479 52.2997C68.2479 40.9385 68.2479 29.5789 68.2479 18.2177C68.2479 18.0328 68.2479 17.8496 68.2479 17.6193H68.2446Z" fill="white"/>
<path d="M26.8432 23.6406C29.7857 23.6439 32.1587 25.9952 32.1488 28.8947C32.1373 31.7748 29.7676 34.0986 26.8399 34.1002C23.9155 34.1002 21.5458 31.7748 21.5376 28.8899C21.5278 25.9888 23.9041 23.6374 26.8449 23.6406H26.8432Z" fill="white"/>
<path d="M35.5607 59.7943C33.9098 59.7943 32.2589 59.7943 30.6096 59.7943C30.009 59.7943 29.9236 59.7068 29.922 59.1149C29.9154 57.6716 30.1714 57.4154 31.6254 57.4154C32.1571 57.4154 32.6905 57.3911 33.2206 57.4203C34.0788 57.4689 34.6827 57.0846 35.1357 56.4051C35.2325 56.2592 35.3211 56.1067 35.4032 55.9511C35.6575 55.4759 36.0563 55.2424 36.5962 55.2424C37.9468 55.2424 39.2975 55.2375 40.6481 55.2424C41.2635 55.2456 41.5851 55.5619 41.59 56.1651C41.5982 57.0538 41.5999 57.944 41.5867 58.8327C41.5769 59.496 41.2733 59.783 40.5939 59.7846C38.9167 59.7895 37.2379 59.7846 35.5607 59.7846V59.7895V59.7943Z" fill="white"/>
</g>
<defs>
<filter id="filter0_d_548_4" x="0" y="0" width="81" height="79" filterUnits="userSpaceOnUse" color-interpolation-filters="sRGB">
<feFlood flood-opacity="0" result="BackgroundImageFix"/>
<feColorMatrix in="SourceAlpha" type="matrix" values="0 0 0 0 0 0 0 0 0 0 0 0 0 0 0 0 0 0 127 0" result="hardAlpha"/>
<feOffset dy="2"/>
<feGaussianBlur stdDeviation="1"/>
<feComposite in2="hardAlpha" operator="out"/>
<feColorMatrix type="matrix" values="0 0 0 0 0.595833 0 0 0 0 0.595833 0 0 0 0 0.595833 0 0 0 0.2 0"/>
<feBlend mode="normal" in2="BackgroundImageFix" result="effect1_dropShadow_548_4"/>
<feBlend mode="normal" in="SourceGraphic" in2="effect1_dropShadow_548_4" result="shape"/>
</filter>
<clipPath id="clip0_548_4">
<rect width="59.1837" height="50" fill="white" transform="translate(12 12)"/>
</clipPath>
</defs>
</svg>
