<svg width="116" height="116" viewBox="0 0 116 116" fill="none" xmlns="http://www.w3.org/2000/svg">
<circle cx="58" cy="58" r="58" fill="#F0F2F5"/>
<g clip-path="url(#clip0_372_3)">
<path d="M83.84 48.75C85.17 51.85 85.96 55.24 86.1 58.79H77.9C77.35 59.64 76.85 60.4 76.43 61.04H86.1C85.92 65.57 84.69 69.82 82.63 73.57H71.99C72.72 70.65 73.23 67.46 73.45 64.08C73.13 64.18 72.81 64.24 72.47 64.24C72.02 64.24 71.6 64.13 71.2 63.97C70.95 67.39 70.4 70.63 69.61 73.57H58.82V61.04H68.52C68.09 60.4 67.59 59.64 67.05 58.79H58.83V46.26H59.84C59.49 45.54 59.15 44.82 58.83 44.11C58.82 44.08 58.8 44.05 58.79 44.01C57.8 41.79 57.01 39.66 56.58 37.78V44.01H46.46C48.74 37.12 52.43 32.33 56.58 31.59C56.58 31.59 56.6 31.54 56.61 31.51C56.7 31.12 56.79 30.74 56.91 30.36C57.02 29.98 57.16 29.62 57.3 29.25C40.55 29.46 27 43.13 27 59.91C27 76.69 40.77 90.6 57.69 90.6C74.61 90.6 88.38 76.83 88.38 59.91C88.38 54.99 87.21 50.34 85.14 46.21C84.73 47.05 84.29 47.9 83.84 48.75ZM68.93 75.82C66.65 82.71 62.96 87.5 58.81 88.24V75.82H68.93ZM56.56 88.24C52.41 87.5 48.73 82.7 46.44 75.82H56.56V88.24ZM56.56 73.57H45.77C44.75 69.8 44.13 65.54 44.04 61.04H56.56V73.57ZM56.56 46.26V58.79H44.04C44.13 54.29 44.75 50.03 45.77 46.26H56.56ZM50.55 32.39C47.82 34.97 45.56 39.01 44.01 44.01H34.13C37.96 38.35 43.77 34.15 50.56 32.39H50.55ZM32.75 46.26H43.39C42.44 50.04 41.88 54.28 41.8 58.79H29.28C29.46 54.26 30.69 50.01 32.75 46.26ZM41.79 61.04C41.87 65.55 42.43 69.79 43.38 73.57H32.75C30.69 69.82 29.45 65.57 29.28 61.04H41.8H41.79ZM34.12 75.82H44.01C45.55 80.82 47.82 84.86 50.55 87.44C43.76 85.68 37.95 81.47 34.12 75.82ZM64.82 87.44C67.55 84.86 69.81 80.82 71.36 75.82H81.25C77.42 81.48 71.61 85.68 64.82 87.44Z" fill="#00215B"/>
<path d="M61.2499 44.01C61.5999 44.75 61.9699 45.51 62.3599 46.26C64.7999 51.03 67.8299 55.87 69.7299 58.79C70.3899 59.8 70.9099 60.58 71.2199 61.04C71.2599 61.09 71.2899 61.15 71.3199 61.19C71.4299 61.35 71.4999 61.46 71.5299 61.5C71.7399 61.8 72.0899 61.99 72.4599 61.99C72.8299 61.99 73.1799 61.81 73.3899 61.5C73.4199 61.46 73.4799 61.36 73.5699 61.23C73.6099 61.17 73.6599 61.1 73.7099 61.03C74.0199 60.57 74.5399 59.79 75.1999 58.78C77.0999 55.86 80.1299 51.02 82.5699 46.25L82.5899 46.21C82.8299 45.74 83.0599 45.28 83.2899 44.82C83.4599 44.48 83.6199 44.13 83.7799 43.79C85.3599 40.4 86.4799 37.22 86.4799 35.02C86.4799 27.29 80.1899 21 72.4599 21C66.7699 21 61.8699 24.41 59.6699 29.3C59.6499 29.35 59.6199 29.4 59.5999 29.45C59.3099 30.11 59.0899 30.8 58.8999 31.51L58.8799 31.6C58.8499 31.7 58.8299 31.8 58.7999 31.9C58.5699 32.91 58.4399 33.95 58.4399 35.02C58.4399 35.77 58.5699 36.63 58.7999 37.56C59.2699 39.45 60.1499 41.68 61.2399 44L61.2499 44.01ZM61.0099 32.37C61.0599 32.14 61.1199 31.92 61.1799 31.7C61.3299 31.18 61.5199 30.68 61.7399 30.2C61.8399 29.98 61.9399 29.76 62.0599 29.55C64.0299 25.81 67.9599 23.26 72.4699 23.26C78.9599 23.26 84.2399 28.54 84.2399 35.03C84.2399 36.63 83.4799 38.98 82.3099 41.63C81.9799 42.39 81.5999 43.17 81.2099 43.96L81.1799 44.01C80.8099 44.75 80.4299 45.5 80.0299 46.26C77.9499 50.19 75.4799 54.22 73.5299 57.24C73.1699 57.79 72.8299 58.32 72.5099 58.79L72.4599 58.86L72.4099 58.79C72.0499 58.26 71.6599 57.66 71.2599 57.03C69.3299 54.04 66.9299 50.1 64.8899 46.26C64.4899 45.5 64.1099 44.75 63.7399 44.01C61.9599 40.4 60.6899 37.09 60.6899 35.02C60.6899 34.11 60.7999 33.22 60.9999 32.37H61.0099Z" fill="#00215B"/>
<path d="M67.4799 40.3205C68.3799 41.1605 69.4799 41.7805 70.7099 42.0905C71.2699 42.2305 71.8599 42.3105 72.4699 42.3105C74.6099 42.3105 76.5299 41.3805 77.8699 39.9005C78.3799 39.3305 78.8099 38.6905 79.1299 37.9805C79.5399 37.0705 79.7699 36.0705 79.7699 35.0205C79.7699 31.0005 76.4999 27.7305 72.4799 27.7305C70.1299 27.7305 68.0499 28.8505 66.7099 30.5805C66.2399 31.1905 65.8699 31.8705 65.6099 32.6105C65.5599 32.7505 65.5099 32.8905 65.4699 33.0305C65.2899 33.6605 65.1899 34.3305 65.1899 35.0205C65.1899 35.5405 65.2499 36.0405 65.3499 36.5205C65.6599 38.0005 66.4299 39.3105 67.4899 40.3105L67.4799 40.3205ZM67.4299 35.0205C67.4299 34.4205 67.5499 33.8505 67.7499 33.3205C68.0199 32.5805 68.4399 31.9205 68.9899 31.3905C69.8999 30.5205 71.1199 29.9805 72.4699 29.9805C75.2499 29.9805 77.5099 32.2405 77.5099 35.0205C77.5099 35.4805 77.4299 35.9205 77.3099 36.3405C77.0999 37.1005 76.7199 37.7905 76.2099 38.3605C75.2899 39.3905 73.9599 40.0605 72.4699 40.0605C71.3199 40.0605 70.2799 39.6605 69.4299 39.0105C68.3699 38.2005 67.6499 36.9805 67.4899 35.5905C67.4699 35.4005 67.4299 35.2205 67.4299 35.0205Z" fill="#00215B"/>
</g>
<defs>
<clipPath id="clip0_372_3">
<rect width="61.37" height="69.6" fill="white" transform="translate(27 21)"/>
</clipPath>
</defs>
</svg>
