<svg width="81" height="80" viewBox="0 0 81 80" fill="none" xmlns="http://www.w3.org/2000/svg">
<g filter="url(#filter0_d_528_3)">
<rect x="2" y="0.822266" width="77" height="75" rx="10" fill="#00215B"/>
</g>
<g clip-path="url(#clip0_528_3)">
<path d="M48.9993 32.9062C48.7871 31.5906 48.6485 30.1194 48.2934 28.7022C47.9425 27.3016 48.1442 26.2475 49.3019 25.2514C50.4826 24.2368 51.4637 22.998 52.5457 21.8692C53.0709 21.3214 53.2978 20.7009 53.0625 19.9747C52.8272 19.2505 52.2768 18.8791 51.5288 18.7297C49.6632 18.3582 47.8039 17.9557 45.9404 17.5843C45.5664 17.5096 45.3395 17.3332 45.1483 17.0053C44.1882 15.3619 43.2028 13.733 42.2217 12.1021C41.3351 10.6309 39.6733 10.6267 38.7867 12.0938C37.8118 13.7081 36.8328 15.3225 35.8874 16.9535C35.6647 17.3373 35.3937 17.5137 34.9693 17.5967C33.1373 17.9578 31.3095 18.3396 29.4858 18.7317C27.7988 19.0928 27.3114 20.6366 28.49 21.8961C29.8766 23.3798 31.2737 24.8572 32.6814 26.3222C32.9251 26.5753 32.9986 26.8181 32.944 27.1542C32.6393 28.9574 32.362 30.7648 32.0511 32.5679C31.9145 33.3668 32.0574 34.0557 32.7423 34.5496C33.4062 35.0289 34.0995 34.975 34.8138 34.6098C36.566 33.7154 38.3329 32.8501 40.0851 31.9537C40.3813 31.8023 40.6103 31.8023 40.9086 31.9537C42.707 32.8709 44.5096 33.7839 46.3269 34.6679C47.6463 35.309 49.0371 34.4479 49.0014 32.9041L48.9993 32.9062Z" fill="white"/>
<path d="M40.4758 58.6309C33.9397 58.6309 27.4037 58.6309 20.8677 58.6309C19.4097 58.6309 18.7983 59.2347 18.7962 60.6706C18.7962 61.206 18.7836 61.7413 18.8004 62.2746C18.8298 63.2602 19.4748 63.918 20.4707 63.9906C20.6261 64.0031 20.7858 63.9968 20.9434 63.9968C33.9797 63.9968 47.0181 63.9968 60.0544 63.9968C61.6069 63.9968 62.2036 63.4055 62.2036 61.8658C62.2036 61.4176 62.2036 60.9694 62.2036 60.5191C62.1973 59.2803 61.546 58.6309 60.296 58.6309C53.6906 58.6309 47.0853 58.6309 40.4779 58.6309H40.4758Z" fill="white"/>
<path d="M40.5031 49.7111C35.7318 49.7111 30.9606 49.7111 26.1894 49.7111C24.8595 49.7111 24.2355 50.3274 24.2334 51.6408C24.2334 52.2281 24.2229 52.8153 24.2376 53.4004C24.2586 54.3301 24.9036 54.9837 25.8448 55.0501C25.9667 55.0584 26.0886 55.0563 26.2125 55.0563C35.7381 55.0563 45.2617 55.0542 54.7873 55.0625C55.4974 55.0625 56.2139 54.9484 56.487 54.2803C56.987 53.0539 56.966 51.7425 56.5017 50.512C56.2685 49.8937 55.613 49.7069 54.9239 49.709C50.1169 49.7194 45.3121 49.7152 40.5052 49.7152L40.5031 49.7111Z" fill="white"/>
<path d="M40.524 46.1259C43.4779 46.1259 46.4318 46.1259 49.3858 46.1259C50.7178 46.1259 51.3333 45.5117 51.3375 44.1941C51.3375 43.6421 51.3438 43.0902 51.3375 42.5361C51.3186 41.4447 50.682 40.7952 49.5727 40.7848C47.6336 40.7682 45.6923 40.7786 43.7511 40.7786C39.7488 40.7786 35.7444 40.7786 31.7421 40.7786C30.2294 40.7786 29.6601 41.3451 29.658 42.8432C29.658 43.3101 29.6559 43.7749 29.658 44.2418C29.6664 45.4972 30.2904 46.1218 31.5551 46.1238C34.5448 46.128 37.5344 46.1238 40.5219 46.1238L40.524 46.1259Z" fill="white"/>
<path d="M20.6221 24.7134C21.1978 24.7134 21.7734 24.7259 22.3512 24.7113C23.4605 24.6844 24.2462 23.9249 24.2357 22.9082C24.2252 21.9018 23.4122 21.1465 22.3155 21.1402C21.181 21.134 20.0465 21.1319 18.912 21.1402C17.8153 21.1485 17.0085 21.908 17.0022 22.9185C16.998 23.9374 17.7817 24.6864 18.8952 24.7113C19.4708 24.7238 20.0465 24.7134 20.6242 24.7134H20.6221Z" fill="white"/>
<path d="M60.4327 21.1388C59.8213 21.1388 59.2099 21.1284 58.6006 21.1409C57.5754 21.1616 56.7875 21.9211 56.7686 22.8922C56.7476 23.8675 57.4956 24.6726 58.5313 24.7016C59.7688 24.7369 61.0104 24.739 62.2479 24.7016C63.2857 24.6684 64.0211 23.8654 64 22.8839C63.979 21.9149 63.1912 21.1616 62.1617 21.1409C61.5861 21.1305 61.0104 21.1409 60.4348 21.1409L60.4327 21.1388Z" fill="white"/>
<path d="M56.905 17.1655C57.1697 17.0888 57.4491 17.0452 57.6971 16.9331C58.7433 16.4642 59.7854 15.9807 60.8211 15.4889C61.8191 15.0138 62.2141 13.997 61.7771 13.0757C61.3422 12.1606 60.2896 11.8037 59.2896 12.2561C58.2118 12.7437 57.1382 13.2355 56.0772 13.7563C55.2768 14.1485 54.9049 14.9847 55.1192 15.7898C55.3335 16.5949 56.0415 17.1282 56.905 17.1655Z" fill="white"/>
<path d="M19.0612 13.9335C19.078 14.5539 19.3994 15.1059 20.0486 15.4213C21.1579 15.9587 22.2756 16.4858 23.408 16.9755C24.3261 17.3739 25.3409 16.9776 25.7569 16.1164C26.1792 15.2428 25.8619 14.2323 24.9564 13.7779C23.8219 13.2114 22.6748 12.6636 21.5025 12.1801C20.3197 11.6925 19.057 12.5806 19.0612 13.9335Z" fill="white"/>
<path d="M55.0711 30.7221C55.0816 31.2201 55.4072 31.772 56.0522 32.0874C57.1615 32.629 58.2813 33.1498 59.4116 33.6437C60.3234 34.0421 61.3487 33.6499 61.7668 32.7929C62.189 31.9276 61.8676 30.8964 60.9726 30.4502C59.8381 29.8837 58.691 29.3359 57.5187 28.8504C56.3358 28.3607 55.0711 29.2467 55.0711 30.7221Z" fill="white"/>
<path d="M19.063 32.0214C19.063 33.2601 20.3025 34.1503 21.4664 33.6793C22.6724 33.1896 23.8531 32.6273 25.017 32.0421C25.8616 31.6167 26.1641 30.6041 25.7796 29.7679C25.3889 28.9171 24.3825 28.4669 23.5022 28.8383C22.3005 29.3467 21.124 29.909 19.9537 30.4838C19.3718 30.7701 19.063 31.376 19.063 32.0214Z" fill="white"/>
</g>
<defs>
<filter id="filter0_d_528_3" x="0" y="0.822266" width="81" height="79" filterUnits="userSpaceOnUse" color-interpolation-filters="sRGB">
<feFlood flood-opacity="0" result="BackgroundImageFix"/>
<feColorMatrix in="SourceAlpha" type="matrix" values="0 0 0 0 0 0 0 0 0 0 0 0 0 0 0 0 0 0 127 0" result="hardAlpha"/>
<feOffset dy="2"/>
<feGaussianBlur stdDeviation="1"/>
<feComposite in2="hardAlpha" operator="out"/>
<feColorMatrix type="matrix" values="0 0 0 0 0.595833 0 0 0 0 0.595833 0 0 0 0 0.595833 0 0 0 0.2 0"/>
<feBlend mode="normal" in2="BackgroundImageFix" result="effect1_dropShadow_528_3"/>
<feBlend mode="normal" in="SourceGraphic" in2="effect1_dropShadow_528_3" result="shape"/>
</filter>
<clipPath id="clip0_528_3">
<rect width="47" height="53" fill="white" transform="matrix(-1 0 0 1 64 11)"/>
</clipPath>
</defs>
</svg>
