<svg width="116" height="116" viewBox="0 0 116 116" fill="none" xmlns="http://www.w3.org/2000/svg">
<circle cx="58" cy="58" r="58" fill="#F0F2F5"/>
<g clip-path="url(#clip0_367_2)">
<path d="M30.3486 83.8557C34.357 84.1689 37.9847 84.7129 40.7415 86.1141C40.8599 86.18 40.9783 86.2377 41.0882 86.3037C41.1474 86.3366 41.2151 86.3696 41.2743 86.4026C42.4582 87.0208 43.7013 87.6389 45.0035 88.2489C48.6905 89.988 51.6756 90.87 55.2949 90.9689C59.743 91.0925 67.4975 87.4494 73.4423 84.2595C84.8838 78.1272 91.2768 74.212 88.148 71.7146C85.1967 69.3572 76.3682 74.6324 68.8082 78.3662" stroke="#00215B" stroke-width="2.5" stroke-linecap="round" stroke-linejoin="round"/>
<path d="M44.395 78.6218C49.7648 79.0422 53.2235 80.5341 57.9252 82.1001C62.7284 83.6992 65.8066 84.7212 66.6015 82.1331C67.4471 79.4049 61.6968 75.2507 55.6504 72.8769C51.2954 71.1624 48.2257 67.7913 44.1667 67.272C40.8433 66.8434 37.8159 67.6264 35.4143 68.393C32.573 69.3079 30.2221 69.8766 28.0488 70.2228" stroke="#00215B" stroke-width="2.5" stroke-linecap="round" stroke-linejoin="round"/>
<path d="M81.0785 69.5153C80.6388 69.0537 79.8016 68.7734 78.5754 68.7734C75.2944 68.7734 70.1952 72.1611 65.6118 75.0047" stroke="#00215B" stroke-width="2.5" stroke-linecap="round" stroke-linejoin="round"/>
<path d="M73.5356 67.5035C73.155 67.4211 72.6899 67.3963 72.1403 67.4375C69.5188 67.6601 66.6013 70.2977 62.686 73.1001" stroke="#00215B" stroke-width="2.5" stroke-linecap="round" stroke-linejoin="round"/>
<path d="M66.4742 67.1979C66.1106 67.132 65.6708 67.132 65.155 67.1979C63.2016 67.4781 62.3982 68.9535 59.4639 71.2861" stroke="#00215B" stroke-width="2.5" stroke-linecap="round" stroke-linejoin="round"/>
<path d="M49.7646 32.639C49.7646 36.8426 52.9104 40.7001 56.7919 40.7001C60.6734 40.7001 63.8191 36.8344 63.8191 32.639C63.8191 28.4436 60.6734 25.0312 56.7919 25.0312C52.9104 25.0312 49.7646 28.4354 49.7646 32.639V32.639Z" stroke="#00215B" stroke-width="2.5" stroke-linecap="round" stroke-linejoin="round"/>
<path d="M44.674 62.2623H68.9015C70.0854 62.2623 71.041 61.3309 71.041 60.177V57.3333C71.041 49.8492 64.8171 43.791 57.1471 43.791H56.4368C48.7584 43.791 42.543 49.8574 42.543 57.3333V60.177C42.543 61.3309 43.4985 62.2623 44.6824 62.2623H44.674Z" stroke="#00215B" stroke-width="2.5" stroke-linecap="round" stroke-linejoin="round"/>
<path d="M64.8252 54.9824V62.2605" stroke="#00215B" stroke-width="2.5" stroke-linecap="round" stroke-linejoin="round"/>
<path d="M48.75 54.9824V62.2605" stroke="#00215B" stroke-width="2.5" stroke-linecap="round" stroke-linejoin="round"/>
</g>
<defs>
<clipPath id="clip0_367_2">
<rect width="63" height="68" fill="white" transform="translate(27 24)"/>
</clipPath>
</defs>
</svg>
