<svg width="108" height="104" viewBox="0 0 108 104" fill="none" xmlns="http://www.w3.org/2000/svg">
<path d="M55.6938 85.5443C57.8323 85.5443 59.8748 85.5315 61.9173 85.5475C62.9562 85.5571 63.7009 86.3051 63.6402 87.2288C63.5891 87.9896 62.9945 88.6193 62.2178 88.7216C62.0356 88.7472 61.847 88.7376 61.6584 88.7376C50.4612 88.7376 39.264 88.744 28.0637 88.7344C25.0111 88.7344 22.6297 86.7526 22.0831 83.799C22.0064 83.3835 22 82.952 22 82.5301C22 74.0467 22 65.5633 22 57.0799C22 55.5648 22.5306 55.0501 24.0841 55.0501C36.3457 55.0501 48.6073 55.0501 60.8689 55.0501C61.2077 55.0501 61.5497 55.0501 61.9045 55.0501C60.7634 48.7915 65.9608 45.416 69.6432 45.6717C73.6195 45.9466 77.5416 49.4819 76.4995 55.0501C76.8 55.0501 77.0877 55.0501 77.3754 55.0501C79.5841 55.0501 81.7897 55.0501 83.9984 55.0501C85.7117 55.0501 86.1912 55.5232 86.1912 57.2141C86.1912 65.592 86.1912 73.9668 86.1848 82.3447C86.1848 82.9009 86.1624 83.4666 86.0506 84.0068C85.488 86.7398 83.1674 88.6736 80.3896 88.7312C79.0343 88.7599 77.6758 88.7504 76.3205 88.7344C75.2625 88.7248 74.5209 88.0248 74.5465 87.101C74.5721 86.1996 75.2913 85.5571 76.3205 85.5475C77.6247 85.5347 78.9289 85.5603 80.2298 85.5379C81.8089 85.5092 82.982 84.384 82.9851 82.8273C83.0011 74.7691 82.9915 66.7108 82.9915 58.6525C82.9915 58.5503 82.9692 58.448 82.9468 58.2434H82.0901C79.485 58.2434 76.8767 58.2338 74.2716 58.2498C73.5556 58.253 72.9547 58.0836 72.5743 57.4315C72.1747 56.7443 72.3633 56.1305 72.7661 55.4976C73.9712 53.5958 73.6291 51.2847 71.9734 49.8751C70.3943 48.5294 68.0705 48.5422 66.4819 49.9007C64.7941 51.3423 64.4649 53.583 65.6891 55.5104C66.0759 56.1209 66.2485 56.7155 65.8969 57.3772C65.5293 58.0772 64.8996 58.253 64.1516 58.2498C61.652 58.2338 59.1524 58.2434 56.6496 58.2434C56.3619 58.2434 56.0742 58.2434 55.6906 58.2434V59.6307C55.6906 61.9193 55.6778 64.2048 55.697 66.4903C55.7034 67.2958 55.6523 68.0501 54.8308 68.4721C54.0221 68.8876 53.3732 68.5392 52.7051 68.0661C50.4836 66.4934 47.6867 67.1136 46.4113 69.431C45.4971 71.0931 45.8168 73.1293 47.2072 74.4814C48.6009 75.8399 50.6978 76.0892 52.3535 75.0855C52.5805 74.9481 52.7882 74.7819 52.996 74.6156C53.5458 74.1777 54.1372 74.0595 54.7796 74.3791C55.4125 74.6955 55.6938 75.2262 55.6906 75.9326C55.6842 78.8062 55.6906 81.6766 55.6906 84.5502C55.6906 84.8411 55.6906 85.132 55.6906 85.5379L55.6938 85.5443ZM52.4622 78.5952C49.042 79.4039 46.1684 78.5665 44.1003 75.7248C42.3358 73.3019 42.1409 70.5945 43.6016 67.983C45.5419 64.5148 48.6265 63.4121 52.4366 64.2783V58.3105H25.1965V59.0905C25.1965 66.8546 25.1965 74.6156 25.1965 82.3798C25.1965 84.5119 26.2385 85.5443 28.3865 85.5443C36.1251 85.5443 43.8606 85.5443 51.5992 85.5443C51.8805 85.5443 52.1617 85.5443 52.4622 85.5443V78.5952Z" fill="#E6E6E6"/>
<path d="M47.2329 45.4058C45.1903 48.6055 42.3774 50.063 38.6664 49.1425C35.6617 48.3977 33.7726 46.3615 33.2164 43.3217C32.5707 39.8152 34.0251 37.1717 37.0777 35.2571C36.9019 35.0621 36.7453 34.8671 36.5695 34.6913C34.9361 33.0547 33.2931 31.4213 31.6629 29.7815C30.656 28.7651 30.6592 27.9915 31.6725 26.975C37.6914 20.9593 43.704 14.9372 49.7293 8.93106C52.3088 6.35791 55.8793 6.35472 58.4652 8.93106C64.4937 14.9372 70.5062 20.9593 76.522 26.9782C77.5289 27.9851 77.5289 28.781 76.5252 29.7911C74.1982 32.1277 71.8583 34.4516 69.5345 36.7914C69.0167 37.3124 68.4573 37.6768 67.6934 37.4434C66.9454 37.2165 66.6513 36.6539 66.4883 35.9155C65.9897 33.6876 64.1229 32.3611 61.8471 32.5497C59.894 32.7127 58.2351 34.4068 58.0912 36.3822C57.9282 38.6229 59.2451 40.4545 61.4475 40.9531C62.1859 41.1194 62.7548 41.4102 62.9786 42.1582C63.2055 42.919 62.8507 43.4783 62.3265 43.9994C60.0411 46.2656 57.7748 48.5479 55.4957 50.8206C54.4952 51.8147 53.6961 51.8083 52.6892 50.8046C51.0686 49.1936 49.4512 47.573 47.8338 45.9588C47.6516 45.7766 47.4534 45.6104 47.2361 45.4122L47.2329 45.4058ZM73.284 28.2856C73.1721 28.1673 73.0155 27.9915 72.8493 27.8253C67.3769 22.353 61.9014 16.8774 56.4291 11.4051C54.8085 9.78451 53.3892 9.7909 51.759 11.4179C46.2835 16.8902 40.808 22.3626 35.3357 27.8349C35.1694 28.0011 35.0192 28.1769 34.8306 28.3815C35.0352 28.5988 35.2078 28.7938 35.3932 28.9792C37.2727 30.8619 39.149 32.7478 41.0381 34.6178C41.5783 35.1516 41.9907 35.7142 41.7318 36.5165C41.4665 37.3316 40.8527 37.6033 40.0281 37.7023C37.6179 37.9964 35.9206 40.2116 36.2914 42.497C36.6462 44.693 38.4618 46.2688 40.597 46.2305C42.793 46.1921 44.4967 44.6259 44.7972 42.3052C44.8931 41.5733 45.1711 41.0331 45.8744 40.7773C46.6159 40.5056 47.2073 40.7773 47.7411 41.3143C49.6334 43.2226 51.5385 45.1149 53.4404 47.0136C53.6449 47.215 53.8559 47.4068 53.9454 47.4899C55.435 46.0003 56.8862 44.5492 58.3214 43.1171C54.0413 40.2467 54.1276 34.9726 56.5697 32.0382C57.8355 30.5167 59.4465 29.5865 61.4027 29.3788C64.5736 29.04 67.0157 30.3409 68.7258 32.8597C70.2761 31.3062 71.772 29.8039 73.2936 28.2792L73.284 28.2856Z" fill="#E6E6E6"/>
<path d="M70.736 87.1397C70.7328 88.0251 70.0488 88.7283 69.1921 88.7315C68.3195 88.7315 67.5523 87.9612 67.5747 87.1013C67.5971 86.2415 68.3195 85.5511 69.1857 85.5606C70.0679 85.5734 70.7392 86.2575 70.736 87.1397Z" fill="#E6E6E6"/>
</svg>
