<svg width="75" height="74" viewBox="0 0 75 74" fill="none" xmlns="http://www.w3.org/2000/svg">
<g filter="url(#filter0_d_530_4)">
<rect x="2" width="71" height="69.3864" rx="10" fill="#00215B"/>
</g>
<path d="M36.4355 50.3517C36.2784 50.3517 36.1549 50.3517 36.0298 50.3517C30.8255 50.3517 25.6228 50.3517 20.4185 50.3517C19.4164 50.3517 19 49.9412 19 48.951C19 41.9444 19 34.9378 19 27.9313V27.5254H55.6129V34.9256C53.3753 33.1419 50.8525 32.1852 47.9316 32.0769C48.1009 31.9732 48.197 31.9228 48.2839 31.8602C48.679 31.5825 48.862 31.1065 48.7461 30.6594C48.6225 30.1818 48.2412 29.8141 47.7501 29.7989C46.9127 29.7714 46.0738 29.7653 45.2379 29.8019C44.6507 29.8279 44.2145 30.3558 44.2175 30.9325C44.2221 31.5261 44.6812 32.025 45.2898 32.0586C45.7321 32.083 46.1775 32.0632 46.722 32.0632C45.9975 32.1944 45.3676 32.2753 44.7575 32.4294C44.1214 32.5911 43.4884 32.7879 42.8814 33.0351C42.285 33.2777 41.7054 33.5753 41.1517 33.9033C40.598 34.2314 40.0855 34.6266 39.538 35.0065C39.2298 34.4541 38.7311 34.3306 38.1484 34.3504C37.5276 34.3717 36.9053 34.3489 36.283 34.3565C35.5768 34.3656 35.0719 34.857 35.0795 35.51C35.0872 36.1478 35.5859 36.6223 36.2723 36.6361C36.7924 36.6467 37.3126 36.6437 37.8327 36.6483C37.8418 36.6483 37.8525 36.659 37.8891 36.6834C37.8388 36.7627 37.79 36.8421 37.7396 36.9214C37.4254 37.4127 37.0944 37.8933 36.8016 38.3969C36.6186 38.7112 36.4721 38.9584 36.0237 38.966C35.5814 38.9736 35.2733 39.2971 35.1345 39.7396C35.0002 40.1729 35.1131 40.5483 35.4304 40.8504C35.5753 40.9892 35.6409 41.0991 35.5814 41.3051C34.7028 44.3399 34.9957 47.2726 36.3532 50.1136C36.3852 50.1793 36.4035 50.251 36.4401 50.3532L36.4355 50.3517ZM28.2371 29.7867C27.8573 29.7867 27.476 29.7775 27.0962 29.7882C26.4373 29.8065 25.9477 30.2856 25.937 30.9081C25.9263 31.5459 26.4205 32.0525 27.0962 32.0647C27.8436 32.0784 28.5925 32.0784 29.3414 32.0647C30.0003 32.0525 30.49 31.5688 30.5006 30.9463C30.5113 30.3085 30.0171 29.808 29.3414 29.7882C28.9738 29.7775 28.6062 29.7867 28.2386 29.7867H28.2371ZM37.3583 29.7867C36.9785 29.7867 36.5972 29.776 36.2174 29.7897C35.5631 29.8126 35.0765 30.3039 35.0765 30.9264C35.0765 31.549 35.5615 32.051 36.2159 32.0632C36.977 32.0784 37.7381 32.0784 38.4992 32.0632C39.1536 32.0495 39.6401 31.5505 39.6401 30.928C39.6401 30.3054 39.1551 29.8126 38.5008 29.7897C38.121 29.776 37.7396 29.7867 37.3598 29.7867H37.3583ZM28.1959 36.6376C28.5757 36.6376 28.9571 36.6467 29.3369 36.6361C30.0126 36.6162 30.5083 36.1173 30.4976 35.481C30.4884 34.8585 30.0003 34.3718 29.3414 34.3595C28.594 34.3458 27.8451 34.3458 27.0962 34.3595C26.4205 34.3718 25.9248 34.8768 25.9355 35.5131C25.9446 36.1356 26.4327 36.6147 27.0916 36.6345C27.4592 36.6452 27.8268 36.6361 28.1944 36.6361L28.1959 36.6376ZM28.1807 41.2074C28.5742 41.2074 28.9677 41.2181 29.3597 41.2044C30.0141 41.1815 30.4991 40.6887 30.4976 40.0646C30.4976 39.4421 30.011 38.9431 29.3567 38.9294C28.5956 38.9141 27.8344 38.9141 27.0733 38.9294C26.419 38.9431 25.9339 39.4436 25.9355 40.0676C25.9355 40.6902 26.422 41.1815 27.0764 41.2044C27.444 41.2166 27.8116 41.2074 28.1792 41.2059L28.1807 41.2074ZM28.1959 45.7788C28.5757 45.7788 28.9571 45.7879 29.3369 45.7773C30.0126 45.7574 30.5083 45.2585 30.4976 44.6222C30.4884 43.9997 30.0003 43.5129 29.3414 43.5007C28.594 43.487 27.8451 43.487 27.0962 43.5007C26.4205 43.5129 25.9248 44.018 25.9355 44.6543C25.9446 45.2768 26.4327 45.7559 27.0916 45.7757C27.4592 45.7864 27.8268 45.7773 28.1944 45.7773L28.1959 45.7788Z" fill="white"/>
<path d="M47.7171 54.9982C42.0705 54.9998 37.4458 50.3811 37.4336 44.7264C37.4214 39.0702 42.0812 34.4134 47.7339 34.4317C53.3911 34.45 58.0067 39.0778 57.999 44.7218C57.9899 50.3735 53.3667 54.9952 47.7186 54.9967L47.7171 54.9982ZM48.8565 43.5744C48.8565 43.3867 48.8565 43.2494 48.8565 43.1121C48.8565 42.1234 48.8671 41.1331 48.8504 40.1444C48.8397 39.4898 48.3363 39.0046 47.7125 39.0061C47.1039 39.0061 46.5884 39.4791 46.5807 40.1093C46.564 41.6565 46.564 43.2036 46.5807 44.7508C46.5868 45.3657 47.0597 45.8418 47.6744 45.8479C49.221 45.8662 50.7692 45.8631 52.3158 45.8479C52.8024 45.8433 53.1578 45.5809 53.3408 45.1277C53.6443 44.3739 53.0998 43.5881 52.2518 43.5775C51.1383 43.5622 50.0233 43.5744 48.8565 43.5744Z" fill="white"/>
<path d="M48.7781 18.3661C50.6695 18.3646 52.5608 18.357 54.4522 18.3631C55.1325 18.3646 55.6236 18.8041 55.6297 19.4541C55.648 21.3568 55.6358 23.2595 55.6358 25.1896H19.0183C19.0122 25.0691 19.0015 24.947 19.0015 24.8234C19 23.1237 19 21.4224 19 19.7211C19 18.7903 19.421 18.3616 20.3392 18.36C22.2046 18.36 24.0716 18.3631 25.937 18.3661L25.9263 18.3555C25.9278 19.4708 25.9324 20.5847 25.9324 21.7001C25.9324 22.2158 26.1338 22.6156 26.6142 22.8307C27.3906 23.1771 28.202 22.6262 28.2127 21.7382C28.2264 20.6106 28.2203 19.4831 28.2219 18.357L28.2112 18.3677C29.738 18.3677 31.2648 18.3677 32.7916 18.3677L32.7809 18.357C32.7825 19.4724 32.787 20.5862 32.787 21.7016C32.787 22.2173 32.9884 22.6171 33.4688 22.8322C34.2452 23.1786 35.0567 22.6278 35.0673 21.7397C35.0811 20.6122 35.075 19.4846 35.0765 18.3585L35.0658 18.3692C36.5926 18.3692 38.1194 18.3692 39.6462 18.3692L39.6356 18.3585C39.6371 19.4739 39.6417 20.5877 39.6417 21.7031C39.6417 22.2188 39.843 22.6186 40.3235 22.8338C41.0998 23.1801 41.9113 22.6293 41.922 21.7413C41.9357 20.6137 41.9296 19.4861 41.9311 18.36L41.9204 18.3707C43.4473 18.3707 44.9741 18.3707 46.5009 18.3707L46.4902 18.36C46.4917 19.4754 46.4963 20.5893 46.4963 21.7046C46.4963 22.2204 46.6976 22.6201 47.1781 22.8353C47.9545 23.1816 48.7659 22.6308 48.7766 21.7428C48.7903 20.6152 48.7842 19.4876 48.7857 18.3616L48.7751 18.3723L48.7781 18.3661Z" fill="white"/>
<path d="M25.9373 18.3652C25.9373 17.9609 25.9236 17.555 25.9358 17.1506C25.9556 16.4701 26.4468 15.9895 27.095 16.0002C27.728 16.0109 28.1963 16.4839 28.2161 17.1491C28.2283 17.5535 28.2161 17.9593 28.2146 18.3637L28.2252 18.353H25.9297L25.9404 18.3637L25.9373 18.3652Z" fill="white"/>
<path d="M32.7924 18.3652C32.7924 17.9609 32.7786 17.555 32.7908 17.1506C32.8091 16.4701 33.3003 15.9895 33.9485 16.0002C34.5815 16.0109 35.0498 16.4839 35.0696 17.1491C35.0818 17.5535 35.0696 17.9593 35.0681 18.3637L35.0788 18.353C34.3131 18.353 33.5489 18.353 32.7832 18.353L32.7939 18.3637L32.7924 18.3652Z" fill="white"/>
<path d="M39.6482 18.3656C39.6482 17.9613 39.6345 17.5554 39.6467 17.1511C39.6666 16.4706 40.1577 15.9914 40.8059 16.0021C41.4389 16.0128 41.9072 16.4858 41.927 17.1511C41.9392 17.5554 41.927 17.9613 41.9255 18.3656L41.9362 18.3549C41.1705 18.3549 40.4063 18.3549 39.6406 18.3549L39.6513 18.3656H39.6482Z" fill="white"/>
<path d="M46.5037 18.3656C46.5037 17.9613 46.49 17.5554 46.5022 17.1511C46.522 16.4706 47.0132 15.9914 47.6614 16.0021C48.2944 16.0128 48.7627 16.4858 48.7825 17.1511C48.7947 17.5554 48.7825 17.9613 48.781 18.3656L48.7916 18.3549C48.026 18.3549 47.2618 18.3549 46.4961 18.3549L46.5068 18.3656H46.5037Z" fill="white"/>
<defs>
<filter id="filter0_d_530_4" x="0" y="0" width="75" height="73.3867" filterUnits="userSpaceOnUse" color-interpolation-filters="sRGB">
<feFlood flood-opacity="0" result="BackgroundImageFix"/>
<feColorMatrix in="SourceAlpha" type="matrix" values="0 0 0 0 0 0 0 0 0 0 0 0 0 0 0 0 0 0 127 0" result="hardAlpha"/>
<feOffset dy="2"/>
<feGaussianBlur stdDeviation="1"/>
<feComposite in2="hardAlpha" operator="out"/>
<feColorMatrix type="matrix" values="0 0 0 0 0.595833 0 0 0 0 0.595833 0 0 0 0 0.595833 0 0 0 0.2 0"/>
<feBlend mode="normal" in2="BackgroundImageFix" result="effect1_dropShadow_530_4"/>
<feBlend mode="normal" in="SourceGraphic" in2="effect1_dropShadow_530_4" result="shape"/>
</filter>
</defs>
</svg>
