<svg width="66" height="66" viewBox="0 0 66 66" fill="none" xmlns="http://www.w3.org/2000/svg">
<g clip-path="url(#clip0_189_31324)">
<path d="M33.0065 3.03506e-06C51.1888 0.007748 66.0052 14.829 66 33.0065C65.9923 51.1916 51.1707 66.0078 32.9936 66C14.8086 65.9923 -0.00774072 51.171 3.03406e-06 32.9936C0.00774679 14.8084 14.8293 -0.00774193 33.0065 3.03506e-06ZM27.9317 38.5131C26.6101 37.3023 25.4098 36.2 24.2044 35.1028C22.3949 33.4557 20.6061 31.7802 18.758 30.177C17.8003 29.3457 16.6413 29.2811 15.4875 29.7691C14.3363 30.257 13.7297 31.1761 13.6135 32.4075C13.4948 33.6415 14.0239 34.5968 14.9196 35.41C18.4508 38.6138 21.9716 41.828 25.495 45.0396C27.2503 46.6402 28.9694 46.6118 30.6472 44.9466C37.4462 38.1982 44.2452 31.4497 51.0417 24.7013C51.2404 24.5051 51.4366 24.3063 51.6173 24.0946C52.975 22.4759 52.5439 20.1008 50.7035 19.0629C49.2838 18.2626 47.7867 18.544 46.4548 19.8736C40.456 25.8708 34.4571 31.8705 28.4609 37.8703C28.2802 38.051 28.1305 38.2679 27.9291 38.5131H27.9317Z" fill="#25C7D9"/>
</g>
<defs>
<clipPath id="clip0_189_31324">
<rect width="66" height="66" fill="white"/>
</clipPath>
</defs>
</svg>
