<svg width="101" height="102" viewBox="0 0 101 102" fill="none" xmlns="http://www.w3.org/2000/svg">
<path d="M76.6413 10.1758H8.41417C4.93968 10.1758 2.12305 13.1762 2.12305 16.8773V77.2322C2.12305 80.9334 4.93968 83.9338 8.41417 83.9338H76.6413C80.1158 83.9338 82.9325 80.9334 82.9325 77.2322V16.8773C82.9325 13.1762 80.1158 10.1758 76.6413 10.1758Z" stroke="white" stroke-width="3" stroke-linecap="round" stroke-linejoin="round"/>
<path d="M2 28.752H83.0543" stroke="white" stroke-width="3" stroke-linecap="round" stroke-linejoin="round"/>
<path d="M63.1094 2.15625V18.1906" stroke="white" stroke-width="3" stroke-linecap="round" stroke-linejoin="round"/>
<path d="M21.9434 2.15625V18.1906" stroke="white" stroke-width="3" stroke-linecap="round" stroke-linejoin="round"/>
<path d="M49.5563 38.916H44.7676V44.0108H49.5563V38.916Z" fill="white"/>
<path d="M58.8883 38.916H54.0996V44.0108H58.8883V38.916Z" fill="white"/>
<path d="M68.8571 38.916H64.0684V44.0108H68.8571V38.916Z" fill="white"/>
<path d="M20.8161 48.8438H16.0273V53.9386H20.8161V48.8438Z" fill="white"/>
<path d="M30.1481 48.8438H25.3594V53.9386H30.1481V48.8438Z" fill="white"/>
<path d="M40.111 48.8438H35.3223V53.9386H40.111V48.8438Z" fill="white"/>
<path d="M49.236 48.8438H44.4473V53.9386H49.236V48.8438Z" fill="white"/>
<path d="M58.568 48.8438H53.7793V53.9386H58.568V48.8438Z" fill="white"/>
<path d="M68.5368 48.8438H63.748V53.9386H68.5368V48.8438Z" fill="white"/>
<path d="M20.6422 58.7734H15.8535V63.8683H20.6422V58.7734Z" fill="white"/>
<path d="M29.9743 58.7734H25.1855V63.8683H29.9743V58.7734Z" fill="white"/>
<path d="M39.943 58.7734H35.1543V63.8683H39.943V58.7734Z" fill="white"/>
<path d="M49.0661 58.7734H44.2773V63.8683H49.0661V58.7734Z" fill="white"/>
<path d="M58.3961 58.7734H53.6074V63.8683H58.3961V58.7734Z" fill="white"/>
<path d="M68.361 58.7734H63.5723V63.8683H68.361V58.7734Z" fill="white"/>
<path d="M20.6422 68.6992H15.8535V73.794H20.6422V68.6992Z" fill="white"/>
<path d="M29.9743 68.6992H25.1855V73.794H29.9743V68.6992Z" fill="white"/>
<path d="M39.943 68.6992H35.1543V73.794H39.943V68.6992Z" fill="white"/>
<path d="M49.0661 68.6992H44.2773V73.794H49.0661V68.6992Z" fill="white"/>
<path d="M20.5348 39.1133H15.7461V44.2081H20.5348V39.1133Z" fill="white"/>
<path d="M29.8649 39.1133H25.0762V44.2081H29.8649V39.1133Z" fill="white"/>
<path d="M39.8297 39.1133H35.041V44.2081H39.8297V39.1133Z" fill="white"/>
<path d="M77.974 98.8788C89.0053 98.8788 97.9479 89.9516 97.9479 78.9394C97.9479 67.9272 89.0053 59 77.974 59C66.9426 59 58 67.9272 58 78.9394C58 89.9516 66.9426 98.8788 77.974 98.8788Z" stroke="#00AEC5" stroke-width="6" stroke-linecap="round" stroke-linejoin="round"/>
<path d="M68.0469 77.8657L77.0776 86.2456L87.9055 71.6328" stroke="#00AEC5" stroke-width="6" stroke-linecap="round" stroke-linejoin="round"/>
</svg>
