<svg width="99" height="97" viewBox="0 0 99 97" fill="none" xmlns="http://www.w3.org/2000/svg">
<g filter="url(#filter0_d_538_5)">
<rect x="2" width="95" height="92.8409" rx="10" fill="#00215B"/>
</g>
<path d="M40.9857 75.0006C31.5468 75.0006 22.108 75.0006 12.6691 75.0006C10.737 75.0006 10 74.2744 10 72.3692C10 59.5067 10 46.6412 10 33.7788C10 31.907 10.734 31.1777 12.6206 31.1777C31.5226 31.1777 50.4246 31.1777 69.3266 31.1777C71.2131 31.1777 71.9532 31.91 71.9532 33.7757C71.9532 46.6655 71.9532 59.5553 71.9532 72.4451C71.9532 74.2744 71.2192 75.0006 69.3781 75.0006C59.915 75.0006 50.4519 75.0006 40.9857 75.0006ZM20.7158 45.0581C21.471 45.0581 22.2293 45.0855 22.9815 45.052C24.2766 44.9943 25.0834 44.186 25.1198 42.8855C25.1531 41.7521 25.1501 40.6157 25.1198 39.4823C25.0864 38.1544 24.2584 37.3005 22.936 37.2671C21.4498 37.2307 19.9636 37.2337 18.4804 37.2671C17.1428 37.2945 16.3148 38.1119 16.2663 39.4488C16.2238 40.5822 16.2269 41.7187 16.2663 42.8521C16.3088 44.2407 17.1216 45.0186 18.5259 45.0581C19.2569 45.0794 19.9879 45.0612 20.7158 45.0581ZM13.6943 69.3974V71.2631H35.6687V69.3974H13.6943ZM18.4895 62.9161V64.8122H21.2375C21.4114 63.5481 20.9018 62.9161 19.7088 62.9161C19.3115 62.9161 18.9141 62.9161 18.4895 62.9161ZM35.6809 62.9161C35.2138 62.9161 34.8165 62.9161 34.4191 62.9161C33.2423 62.9161 32.7065 63.5025 32.8116 64.6754C32.8146 64.721 32.8601 64.7605 32.8935 64.8182H35.6809V62.9161ZM54.5616 37.6834H56.4512V34.8666H54.5616V37.6834ZM61.1312 37.6834V34.8636H59.2689V37.6834H61.1312ZM63.2726 34.8393V37.6713H65.1076V34.8393H63.2726ZM13.6791 64.8213H16.4968V62.9677H13.6791V64.8213ZM52.4233 34.8605H50.5671V37.6804H52.4233V34.8605ZM26.054 62.9708H23.2514V64.8213H26.1268C26.1268 64.3503 26.1328 63.9249 26.1237 63.5025C26.1207 63.3323 26.0813 63.1652 26.054 62.9708ZM30.8553 62.9161C30.4216 62.9161 30.003 62.9161 29.5844 62.9161C28.4197 62.9161 27.892 63.5066 28.0012 64.6876C28.0042 64.7301 28.0527 64.7666 28.0861 64.8152H30.8553V62.9191V62.9161Z" fill="white"/>
<path d="M86.4949 37.0809C83.3557 36.4397 80.2983 35.8168 77.241 35.1939C76.3523 35.0116 75.4697 34.7928 74.5719 34.6591C74.0321 34.5771 73.8652 34.3552 73.9016 33.8204C73.9926 32.5017 73.6529 31.3166 72.6763 30.3686C71.7664 29.4843 70.6472 29.2139 69.4157 29.2139C62.6763 29.223 55.9338 29.2868 49.1974 29.1744C47.3078 29.144 45.4152 28.6396 43.5438 28.2628C37.9084 27.1294 32.2821 25.9535 26.6557 24.7927C26.4131 24.7411 26.1735 24.6742 25.8398 24.5891C26.1431 23.1124 26.4283 21.6629 26.7376 20.2166C27.1623 18.2415 27.9387 17.7219 29.8981 18.129C43.6954 20.9914 57.4898 23.8568 71.2871 26.7222C75.9762 27.6946 80.6653 28.67 85.3575 29.6332C87.1985 30.0131 87.79 30.8608 87.42 32.6901C87.1257 34.1425 86.8133 35.5919 86.4979 37.0809H86.4949Z" fill="white"/>
<path d="M74.6016 40.0391C78.1078 40.7106 81.5655 41.373 85.105 42.0506C84.7441 43.8252 84.4014 45.5238 84.0495 47.2223C82.7574 53.4485 81.4623 59.6715 80.1733 65.8977C79.8578 67.42 78.9722 68.0338 77.4496 67.7421C76.5579 67.5719 75.6722 67.3775 74.7866 67.1921C74.7381 67.183 74.6986 67.1465 74.6016 67.0979V40.0391Z" fill="white"/>
<path d="M73.8447 31.6808C77.9423 32.5255 81.949 33.352 86.0345 34.1937C85.616 36.2174 85.2156 38.1561 84.8001 40.1646C83.0985 39.8425 81.4485 39.5356 79.8016 39.2196C77.9969 38.8762 76.1922 38.5359 74.3967 38.1561C74.1874 38.1105 73.872 37.8188 73.8689 37.6365C73.8295 35.6978 73.8447 33.7561 73.8447 31.6777V31.6808Z" fill="white"/>
<path d="M24.8965 29.1681C25.0663 28.3021 25.2271 27.4908 25.4121 26.5488C29.5249 27.3905 33.5953 28.2231 37.6656 29.0557L37.6535 29.1681H24.8965Z" fill="white"/>
<path d="M23.1703 39.2151C23.1703 40.4519 23.1885 41.5822 23.149 42.7065C23.143 42.8463 22.8457 43.0894 22.6789 43.0954C21.3444 43.1289 20.0098 43.1289 18.6783 43.0894C18.5176 43.0833 18.2385 42.7764 18.2294 42.6002C18.1839 41.643 18.1839 40.6858 18.2294 39.7287C18.2385 39.5494 18.5115 39.2394 18.6692 39.2364C20.1251 39.1969 21.581 39.2151 23.1703 39.2151Z" fill="white"/>
<defs>
<filter id="filter0_d_538_5" x="0" y="0" width="99" height="96.8418" filterUnits="userSpaceOnUse" color-interpolation-filters="sRGB">
<feFlood flood-opacity="0" result="BackgroundImageFix"/>
<feColorMatrix in="SourceAlpha" type="matrix" values="0 0 0 0 0 0 0 0 0 0 0 0 0 0 0 0 0 0 127 0" result="hardAlpha"/>
<feOffset dy="2"/>
<feGaussianBlur stdDeviation="1"/>
<feComposite in2="hardAlpha" operator="out"/>
<feColorMatrix type="matrix" values="0 0 0 0 0.595833 0 0 0 0 0.595833 0 0 0 0 0.595833 0 0 0 0.2 0"/>
<feBlend mode="normal" in2="BackgroundImageFix" result="effect1_dropShadow_538_5"/>
<feBlend mode="normal" in="SourceGraphic" in2="effect1_dropShadow_538_5" result="shape"/>
</filter>
</defs>
</svg>
