<svg width="90" height="110" viewBox="0 0 90 110" fill="none" xmlns="http://www.w3.org/2000/svg">
<path d="M90 25.2083V91.6667C90 101.75 82.6364 110 73.6364 110H43.7727C39.3545 110 35.1818 108.029 32.1136 104.546L0 67.9708C0 67.9708 5.15455 62.3333 5.31818 62.2417C6.21818 61.3708 7.32273 60.9125 8.55 60.9125C9.45 60.9125 10.2682 61.1875 11.0045 61.6458C11.1682 61.6917 28.6364 72.9208 28.6364 72.9208V18.3333C28.6364 14.5292 31.3773 11.4583 34.7727 11.4583C38.1682 11.4583 40.9091 14.5292 40.9091 18.3333V50.4167H45V6.875C45 3.07083 47.7409 0 51.1364 0C54.5318 0 57.2727 3.07083 57.2727 6.875V50.4167H61.3636V11.4583C61.3636 7.65417 64.1045 4.58333 67.5 4.58333C70.8955 4.58333 73.6364 7.65417 73.6364 11.4583V50.4167H77.7273V25.2083C77.7273 21.4042 80.4682 18.3333 83.8636 18.3333C87.2591 18.3333 90 21.4042 90 25.2083Z" fill="white"/>
</svg>
